<svg xmlns="http://www.w3.org/2000/svg" width="14" height="14" viewBox="0 0 18 18" class="twitter-feed-posts-item-retweet-status-icon">
    <path d="M17.712 11.961a.493.493 0 0 1 0 .698l-2.518 2.517a.491.491 0 0 1-.698 0l-2.517-2.517a.493.493 0 1 1 .698-.698l1.675 1.674V6.468c0-.817-.665-1.481-1.481-1.481H8.494a.494.494 0 1 1 0-.987h4.377a2.471 2.471 0 0 1 2.468 2.468v7.168l1.675-1.675a.493.493 0 0 1 .698 0zm-8.348 2.373a.494.494 0 0 1 0 .988H4.986a2.471 2.471 0 0 1-2.468-2.47V5.686L.843 7.36a.493.493 0 1 1-.698-.698l2.518-2.518a.493.493 0 0 1 .698 0l2.517 2.518a.493.493 0 1 1-.698.698L3.505 5.685v7.168c0 .817.665 1.48 1.48 1.48h4.379z"></path>
</svg>