<svg xmlns="http://www.w3.org/2000/svg" viewBox="0 0 13.89 8.81"><defs><style>.cls-1{fill:#e1e1e1;opacity:0.75;}</style></defs><g id="Layer_2" data-name="Layer 2"><g id="Layer_1-2" data-name="Layer 1"><path class="cls-1" d="M13.78,6.19a.38.38,0,0,1,0,.54h0l-2,1.95a.39.39,0,0,1-.54,0h0L9.32,6.74a.39.39,0,0,1,0-.55.38.38,0,0,1,.54,0l1.3,1.3V1.92A1.14,1.14,0,0,0,10,.77H6.61A.39.39,0,0,1,6.2.4.4.4,0,0,1,6.57,0H10a1.92,1.92,0,0,1,1.92,1.92V7.5l1.3-1.31a.39.39,0,0,1,.55,0ZM7.28,8a.39.39,0,0,1,.39.38.4.4,0,0,1-.39.39H3.88A1.92,1.92,0,0,1,2,6.89V1.31L.66,2.61a.39.39,0,0,1-.55,0,.38.38,0,0,1,0-.54h0l2-2a.38.38,0,0,1,.54,0h0l2,2A.38.38,0,1,1,4,2.61l-1.3-1.3V6.89A1.15,1.15,0,0,0,3.88,8Z"/></g></g></svg>